PathFileType	4	(X/Y/Z)	Patient4_TMGait_0pt7_01_left_28.trc.trc
DataRate	CameraRate	NumFrames	NumMarkers	Units	OrigDataRate	OrigDataStartFrame	OrigNumFrames
85.889570552147	85.889570552147	4	33	mm	85.889570552147	106	       141
Frame#	Time	Sacral			L.Shoulder			Chest			R.Shoulder			Neck			R.ASIS			L.ASIS			R.Thigh.Superior			R.Thigh.Lateral			R.Thigh.Inferior			R.Patella			L.Thigh.Superior			L.Thigh.Lateral			L.Thigh.Inferior			L.Patella			L.Shank.Superior			L.Shank.Lateral			L.Shank.Inferior			R.Shank.Superior			R.Shank.Lateral			R.Shank.Inferior			R.Heel			R.Midfoot.Superior			R.Midfoot.Lateral			R.Toe			L.Heel			L.Midfoot.Lateral			L.Midfoot.Superior			L.Toe			L.Elbow			L.Wrist			R.Elbow			R.Wrist			
		X1	Y1	Z1	X2	Y2	Z2	X3	Y3	Z3	X4	Y4	Z4	X5	Y5	Z5	X6	Y6	Z6	X7	Y7	Z7	X8	Y8	Z8	X9	Y9	Z9	X10	Y10	Z10	X11	Y11	Z11	X12	Y12	Z12	X13	Y13	Z13	X14	Y14	Z14	X15	Y15	Z15	X16	Y16	Z16	X17	Y17	Z17	X18	Y18	Z18	X19	Y19	Z19	X20	Y20	Z20	X21	Y21	Z21	X22	Y22	Z22	X23	Y23	Z23	X24	Y24	Z24	X25	Y25	Z25	X26	Y26	Z26	X27	Y27	Z27	X28	Y28	Z28	X29	Y29	Z29	X30	Y30	Z30	X31	Y31	Z31	X32	Y32	Z32	X33	Y33	Z33	

106	33.482500000000	805.916914402170	1011.855448794624	555.622290643248	990.768711776276	1426.853353041886	347.644951508553	1104.632819080950	1352.339789331123	500.359714001821	1044.502005984902	1438.599489018609	678.444307839332	1015.702307719387	1491.219218738956	499.995587538951	1039.868512107895	943.346924338723	656.183004170322	1003.641713405258	960.258979710007	382.861206788729	1068.921275112746	738.993150542233	625.323783745409	984.084586843350	635.015505327856	688.836199065894	1052.367506128888	578.745178407169	605.049571200173	1046.564272581265	491.367132199810	610.327802617334	1099.515419852248	798.882711916384	414.904116099065	1070.808935651436	669.606658488037	334.642457130843	1180.552567688103	618.271821941570	396.763446178829	1206.607802345328	533.969573216817	387.821059563493	1156.439187730282	458.674724888386	376.133815040876	1030.759001306332	381.211584049079	328.987225097486	1059.276173694113	250.326589260653	375.057643800727	1017.296121592248	404.111574750001	618.962243296960	944.600016980820	302.080301075847	681.126803146976	983.228305376388	206.300246190095	616.580666565096	844.837477753912	43.575079660331	586.161221787392	1015.917894932934	97.421003105598	624.433791227434	926.883805730781	36.707481177533	661.741700198984	1135.381290152667	43.668379766845	655.159278672576	899.188537001786	133.637100548895	417.010646675407	960.611754406489	109.123329711335	330.680480283324	1061.200180738988	142.589142865412	347.305689806435	1162.577664226631	56.014627074502	306.963873549387	906.890825649003	1077.010431997150	260.336018022090	914.391786584875	817.212951456578	249.645680562542	1055.496241458997	1104.911655796647	831.521562700502	1258.746489342502	951.413193409296	784.413779791110	
107	33.494142857143	805.252483119974	1012.310874671721	556.418056503907	989.329463975502	1426.687701171319	347.597298514626	1104.265710206689	1352.172204112086	499.439399000048	1045.717467176341	1438.631375316365	678.015953000840	1015.481646418834	1491.194506758866	499.778198983614	1039.422212569316	943.125237551085	655.837451257096	1002.255037596265	960.489851601957	382.508389074558	1065.789017310412	738.077069853253	624.734488514633	980.053681137194	634.926723420172	688.975960529745	1047.172016007161	577.786582803160	605.009132692911	1040.294939052669	490.810290917506	610.360524152398	1098.557677283275	800.904707227567	415.312367267695	1071.582114336767	671.074013388126	335.007524061176	1181.274816149550	621.064523220142	397.870503023128	1209.261215569831	538.470152749398	388.820817090013	1163.108776821522	462.067380595895	376.915140726214	1043.260227748107	376.921703976347	328.587194728880	1079.641459415856	247.796726784196	375.193536357638	1010.711144825302	403.755003779930	619.060248597370	937.644245550114	302.017403052194	681.262658850143	975.656906763013	206.085395660356	616.616082906864	836.653541434050	43.592617985507	586.250491377704	1007.681418554244	97.308081903871	624.415775272614	918.685270210785	36.708656041396	661.797991073031	1127.186484055105	43.482321143615	655.244153229679	927.210025101296	120.494747760764	415.960661205496	990.935259754712	100.443440707468	330.188491394287	1088.898216496991	140.472716520172	347.638322602844	1196.217120107164	60.935965233337	308.267409611903	898.334997786580	1078.435265256290	261.078976863675	895.212537932459	818.798419033338	252.032394539640	1067.220482234646	1105.951906979610	830.819417630782	1280.266643603919	969.458138410478	778.101560494043	
108	33.505785714286	804.666859244500	1012.682262597048	556.928326639328	987.946334033193	1426.585269699621	347.523063378396	1103.913458566267	1351.950063513200	498.454070841420	1046.922490340351	1438.533912465646	677.536177383156	1015.264878023025	1491.122244861093	499.581205948484	1039.016731785520	942.892429366021	655.326351258132	1001.091850750263	960.551364583006	381.953749042959	1062.668255635910	737.156218842052	624.205245189453	975.869353496381	634.845875286268	689.074762070514	1041.902587544676	576.825680762721	605.047737763494	1033.936001504566	490.283111768369	610.464274183599	1097.399634490299	802.330182052581	415.681872069414	1071.995989692172	672.065254281221	335.219381216526	1181.297167259075	623.045832166476	399.050341367484	1211.062745854028	542.326347360930	389.972271749617	1168.981644464744	465.086830331736	377.916473103354	1055.757554540989	372.613044860937	327.909695963287	1099.510929414194	245.837988002539	375.543070374482	1004.046632554914	403.431566620330	619.178256103933	930.587391069125	301.981354720061	681.397032309053	968.040609918906	205.904874351487	616.679396437728	828.477175079834	43.617734895279	586.349156567932	999.446395211931	97.188365518839	624.395756845289	910.486684534573	36.718953996629	661.862749601616	1118.998229362356	43.286773743221	655.339279494566	955.162714196326	108.686807531505	414.408347768189	1021.428750354522	92.924365589490	329.757769780601	1116.186544398574	139.252975040969	348.546106239971	1229.020625666673	66.908201879684	311.218415800183	889.550801752383	1080.279437037408	261.572767067921	877.365085677151	821.123453182213	254.593550904463	1078.927099543141	1107.098546890016	829.589914452816	1300.339167816711	988.407876250287	771.304039661669	
109	33.517428571429	804.196975179274	1012.952541509652	557.162049364186	986.623839341331	1426.545901986558	347.412448590804	1103.567014406011	1351.684778905574	497.409247110116	1048.084132057502	1438.320214707823	676.996009090387	1015.041901771590	1491.004889134046	499.390990755638	1038.668137742951	942.660234135988	654.663180251113	1000.176719541161	960.445255323911	381.206175169152	1059.574715855577	736.234932010397	623.768707404335	971.537617012459	634.778612331605	689.135629908029	1036.574323650761	575.873883198000	605.175459558761	1027.508793600917	489.783428274225	610.645500426470	1096.092970165857	803.152466602154	416.003987056318	1072.076250316603	672.580635975039	335.244985722852	1180.688604899266	624.204516409157	400.212365538149	1212.057165626133	545.502316069693	391.201919518962	1174.046991875452	467.699725721818	379.063619765712	1068.096028559885	368.367657827091	327.002755839760	1118.660976788885	244.464153790333	376.097348744533	997.311234024664	403.142163670107	619.314888255862	923.427803394343	301.980782198638	681.529634598997	960.383706542910	205.763539613764	616.772492269262	820.305944025176	43.653676017266	586.453139237726	991.220262146689	97.070883837645	624.383982915212	902.286472837737	36.741827491260	661.938817260492	1110.815195394926	43.085770114090	655.442018300057	982.706018586682	98.307539367714	412.501897221694	1051.700270723017	86.633242709869	329.473274400115	1142.749288245908	138.933400299928	349.994706973473	1260.620375067372	73.852513847721	315.677272871537	880.655039675973	1082.525132696591	261.879147707590	860.798132761146	824.008771155150	257.297290529347	1090.608379287022	1108.360042183012	827.812470251418	1318.868737803525	1008.039988129143	764.112198366427	
